<mxfile host="app.diagrams.net" modified="2022-03-04T04:56:09.654Z" agent="5.0 (Windows NT 10.0; Win64; x64) AppleWebKit/537.36 (KHTML, like Gecko) Chrome/98.0.4758.102 Safari/537.36" etag="Plz3Sd2SiC2rZ95FNsMu" version="16.6.6" type="github">
  <diagram id="uUgF0Z99ocAsYqczTg_V" name="Page-1">
    <mxGraphModel dx="1422" dy="802" grid="1" gridSize="10" guides="1" tooltips="1" connect="1" arrows="1" fold="1" page="1" pageScale="1" pageWidth="827" pageHeight="1169" math="0" shadow="0">
      <root>
        <mxCell id="0" />
        <mxCell id="1" parent="0" />
        <mxCell id="oh4TEsaG_IsXWnTT1dTq-1" value="Actor" style="shape=umlActor;verticalLabelPosition=bottom;verticalAlign=top;html=1;outlineConnect=0;" vertex="1" parent="1">
          <mxGeometry x="670" y="360" width="30" height="60" as="geometry" />
        </mxCell>
        <mxCell id="oh4TEsaG_IsXWnTT1dTq-4" style="edgeStyle=orthogonalEdgeStyle;rounded=0;orthogonalLoop=1;jettySize=auto;html=1;fontFamily=Garamond;" edge="1" parent="1" source="oh4TEsaG_IsXWnTT1dTq-3">
          <mxGeometry relative="1" as="geometry">
            <mxPoint x="670" y="390" as="targetPoint" />
          </mxGeometry>
        </mxCell>
        <mxCell id="oh4TEsaG_IsXWnTT1dTq-3" value="&lt;h3&gt;&lt;font face=&quot;Garamond&quot;&gt;Github图床测试&lt;/font&gt;&lt;/h3&gt;" style="rounded=1;whiteSpace=wrap;html=1;strokeWidth=2;fillWeight=4;hachureGap=8;hachureAngle=45;fillColor=#dae8fc;sketch=1;strokeColor=#6c8ebf;" vertex="1" parent="1">
          <mxGeometry x="320" y="360" width="120" height="60" as="geometry" />
        </mxCell>
      </root>
    </mxGraphModel>
  </diagram>
</mxfile>
